<svg xmlns="http://www.w3.org/2000/svg" width="17.751" height="66.909" viewBox="0 0 17.751 66.909"><g transform="translate(-104.688 -219.39)" fill="#fff"><path d="M 120.3143005371094 283.4886474609375 C 118.6770324707031 282.1446533203125 116.4773330688477 280.1103515625 114.294548034668 277.3901977539062 C 111.792366027832 274.2720031738281 109.7998809814453 270.8732299804688 108.3724517822266 267.2882690429688 C 106.5913162231445 262.8150024414062 105.6882019042969 258.0320739746094 105.6882019042969 253.0723419189453 C 105.6882019042969 248.0946502685547 106.5978012084961 243.2715148925781 108.3917465209961 238.7369232177734 C 109.8283081054688 235.1056823730469 111.8325958251953 231.6477508544922 114.3489379882812 228.4591979980469 C 116.5191192626953 225.7092742919922 118.6937026977539 223.6416015625 120.3170013427734 222.2669830322266 C 119.6307373046875 224.2324676513672 118.7296752929688 226.9723052978516 117.835563659668 230.1575622558594 C 116.1574325561523 236.1359100341797 114.1570205688477 244.9643096923828 114.1570205688477 253.0723419189453 C 114.1570205688477 261.1823120117188 116.1581115722656 269.8884887695312 117.8368225097656 275.7639770507812 C 118.72900390625 278.8866271972656 119.628303527832 281.5660095214844 120.3143005371094 283.4886474609375 Z" stroke="none"/><path d="M 118.1309127807617 225.6691284179688 C 117.1727905273438 226.6494750976562 116.1540985107422 227.7860107421875 115.1339340209961 229.0787048339844 C 112.6779022216797 232.1908264160156 110.7223663330078 235.5640869140625 109.3216247558594 239.1047973632812 C 107.5742111206055 243.5217590332031 106.6882019042969 248.2211303710938 106.6882019042969 253.0723419189453 C 106.6882019042969 257.8882446289062 107.5614776611328 262.5316772460938 109.2837524414062 266.8736572265625 C 110.6664810180664 270.359619140625 112.5986938476562 273.667236328125 115.0266876220703 276.7046508789062 C 116.0785217285156 278.0204772949219 117.1352310180664 279.1729431152344 118.1277847290039 280.1608276367188 C 117.7258224487305 278.9127502441406 117.3012313842773 277.5294494628906 116.8753051757812 276.0386962890625 C 114.4080352783203 267.4032592773438 113.1570205688477 259.67626953125 113.1570205688477 253.0723419189453 C 113.1570205688477 246.4715576171875 114.4071807861328 238.6709899902344 116.8727722167969 229.8872985839844 C 117.300666809082 228.3629150390625 117.7274169921875 226.9465026855469 118.1309127807617 225.6691284179688 M 122.4396743774414 219.3900451660156 C 122.4396743774414 219.3900451660156 115.1570205688477 237.5966796875 115.1570205688477 253.0723419189453 C 115.1570205688477 268.5479736328125 122.4396743774414 286.2994689941406 122.4396743774414 286.2994689941406 C 122.4396743774414 286.2994689941406 104.6882019042969 275.4496765136719 104.6882019042969 253.0723419189453 C 104.6882019042969 230.6950073242188 122.4396743774414 219.3900451660156 122.4396743774414 219.3900451660156 Z" stroke="none" fill="#000"/></g></svg>